<svg xmlns="http://www.w3.org/2000/svg" width="171" height="35" viewBox="0 0 171 35">
  <g fill="#FFF">
    <path d="M8.84435255 15.1481495C5.37341907 15.1481495 2.38098226 12.3875089 2.38098226 8.72670819L2.38098226 8.67713523C2.38098226 5.09019573 5.4301663 2.28060498 8.84435255 2.28060498 10.2872993 2.28060498 11.5629113 2.69649466 12.8514146 3.60686833 13.3794545 3.97991103 14.1044035 3.91202847 14.5303237 3.42850534L14.5319667 3.42663701C15.0148869 2.87846975 14.9069534 2.04370107 14.307 1.62233096 13.0499667.739359431 11.3757339.0362455516 8.86950333.0362455516 3.85666297.0362455516.0764634146 3.77240214.0764634146 8.72683274L.0764634146 8.77628114C.0764634146 13.7025623 3.80269623 17.4174199 8.74387583 17.4174199 11.0864368 17.4174199 12.858745 16.8363701 14.5600244 15.4592883 15.0841463 15.0350534 15.1158692 14.2523488 14.6392683 13.7767972 14.226745 13.3651423 13.5682749 13.3240391 13.1033016 13.677153 11.9083237 14.5844128 10.62298 15.1481495 8.84435255 15.1481495L8.84435255 15.1481495zM25.5036452 1.65533808L19.220122 15.8299644C18.8838093 16.5886299 19.4478692 17.4380961 20.2879557 17.4380961 20.7550776 17.4380961 21.1769534 17.1632028 21.3599601 16.7397153L22.7938071 13.4225623 31.6357583 13.4240569 33.0468559 16.734484C33.2285987 17.1608363 33.6519911 17.4380961 34.1211353 17.4380961L34.2164302 17.4380961C35.0565166 17.4380961 35.6205765 16.5886299 35.2842639 15.8299644L29.0007406 1.65533808C28.6970355.970409253 28.0106341.527740214 27.2521929.527740214 26.4937517.527740214 25.8073503.970409253 25.5036452 1.65533808zM23.7581308 11.1060854L27.2010067 3.1897331 30.6721929 11.1060854 23.7581308 11.1060854zM49.6490222 10.9927402C52.208714 10.2645907 53.717255 8.38530249 53.717255 5.89855872L53.717255 5.84911032C53.717255 4.44088968 53.5236319 3.21427046 52.622122 2.30190391 51.5033548 1.22375445 49.5324945.651548043 47.4630532.651548043L43.8414678.651548043C41.9407517.651548043 40.3998559 2.17012456 40.3998559 4.04330961L40.3998559 16.2454804C40.3998559 16.9042527 40.9416718 17.4382206 41.6101264 17.4382206L41.5029512 17.4382206C42.1714058 17.4382206 42.7132217 16.9042527 42.7132217 16.2454804L42.7132217 11.5291993 47.1161242 11.5386655 50.9743038 16.9326512C51.2010399 17.2496441 51.5699601 17.4382206 51.9635255 17.4382206 52.9475654 17.4382206 53.5202195 16.3425089 52.9488293 15.5529537L49.6490222 10.9927402zM42.7133481 9.24797153L42.7133481 4.06373665C42.7133481 3.40496441 43.2551641 2.87099644 43.9236186 2.87099644L47.4947761 2.87099644C49.9903902 2.87099644 51.4217095 4.01951957 51.4217095 6.02236655L51.4217095 6.0719395C51.4217095 8.00129893 49.8902927 9.24797153 47.5201796 9.24797153L42.7133481 9.24797153zM61.1544279 10.0555872L69.0698448 10.0555872C69.6778869 10.0555872 70.1707916 9.56982206 70.1707916 8.97058719L70.1707916 8.97046263C70.1707916 8.37122776 69.6778869 7.88546263 69.0698448 7.88546263L61.1544279 7.88546263 61.1544279 4.00768683C61.1544279 3.40845196 61.6473326 2.92268683 62.2553747 2.92268683L70.2011242 2.92268683C70.8091663 2.92268683 71.302071 2.38635231 71.302071 1.78711744L71.302071 1.78699288C71.302071 1.18775801 70.8091663.651423488 70.2011242.651423488L61.2626142.651423488C59.9130665.651423488 58.8189446 1.72969751 58.8189446 3.05969751L58.8189446 15.0298221C58.8189446 16.3598221 59.9130665 17.4380961 61.2626142 17.4380961L70.326878 17.4380961C70.9349202 17.4380961 71.4278248 16.9032562 71.4278248 16.3040214 71.4278248 15.7047865 70.9349202 15.1682028 70.326878 15.1682028L62.2555011 15.1682028C61.647459 15.1682028 61.1545543 14.6824377 61.1545543 14.0832028L61.1545543 10.0555872 61.1544279 10.0555872zM84.1594257 16.2127224C80.1816851 16.2127224 77.0655166 13.0731851 77.0655166 9.06537367L77.0655166 9.01766904C77.0655166 4.97024911 80.1153326 1.91802491 84.1594257 1.91802491 86.4406896 1.91802491 88.0375743 2.78679715 89.2130887 3.71024911 89.477867 3.91825623 89.865745 3.89982206 90.1001907 3.66129893L90.1961175 3.56364769C90.4505322 3.30482206 90.4170399 2.89914591 90.1292594 2.67382562 88.7517805 1.59517794 86.999694.713327402 84.1847029.713327402 79.3527206.713327402 75.5674656 4.38185053 75.5674656 9.06537367L75.5674656 9.11295374C75.5674656 13.8472954 79.2397317 17.4174199 84.1093769 17.4174199 86.5505188 17.4174199 88.3863991 16.7664947 90.2430067 15.203452 90.521561 14.9689146 90.5324302 14.5576335 90.266388 14.310516 90.0277716 14.0889324 89.6500044 14.0784698 89.3967273 14.2849822 87.9539069 15.4612811 86.4262816 16.2127224 84.1594257 16.2127224L84.1594257 16.2127224zM101.460126 1.26149466L94.4166452 16.602331C94.2235277 17.0230783 94.5357007 17.5 95.0042129 17.5 95.2582483 17.5 95.4886497 17.3530249 95.5926652 17.1245907L97.5084213 12.9168683 107.451572 12.9168683 109.342683 17.1219751C109.446067 17.3517794 109.677226 17.5 109.932273 17.5L110.029969 17.5C110.498608 17.5 110.81078 17.0230783 110.617537 16.602331L103.573803 1.26149466C103.385993.852455516 102.972585.589519573 102.516965.589519573 102.061344.589519573 101.647936.852455516 101.460126 1.26149466L101.460126 1.26149466zM98.0345654 11.6881317L102.492825 1.91229537 106.923279 11.6881317 98.0345654 11.6881317zM127.999377 17.5001246C128.569882 17.5001246 128.895326 16.8577936 128.552441 16.4083986L124.04565 10.4996263 124.494572 10.4191637C127.382993 9.90163701 129.039406 8.15911032 129.039406 5.63848754L129.039406 5.58891459C129.039406 4.32106762 128.586692 3.17653025 127.764299 2.36642349 126.682816 1.30048043 124.977113.713451957 122.961133.713451957L117.576466.713451957C116.526958.713451957 115.676129 1.5519573 115.676129 2.58626335L115.676129 16.8181851C115.676129 17.1948399 115.9859 17.5001246 116.368091 17.5001246L116.407018 17.5001246C116.789208 17.5001246 117.09898 17.1948399 117.09898 16.8181851L117.09898 10.7615658 122.549494 10.7615658 127.444922 17.2259786C127.575353 17.398363 127.780982 17.5001246 127.999377 17.5001246L127.999377 17.5001246zM117.098854 2.64879004C117.098854 2.27213523 117.408625 1.96685053 117.790816 1.96685053L122.810228 1.96685053C125.804182 1.96685053 127.591656 3.34866548 127.591656 5.66314947L127.591656 5.71259786C127.591656 8.01238434 125.660102 9.5574911 122.785204 9.5574911L117.09898 9.5574911 117.09898 2.64879004 117.098854 2.64879004z" transform="translate(41.96 9.466)"/>
    <path d="M33.0218315 25.3630427C32.9030288 24.9882562 32.6098137 24.707758 32.2329313 24.6018861L32.1717605 24.8136299 32.2291397 24.6007651C31.7270089 24.4595196 31.1929024 24.6691459 30.9285033 25.109573 28.0404612 29.9183986 22.7392084 32.8250178 17.0938071 32.6949822 10.3215499 32.5389146 4.45964967 28.1398754 2.49384479 21.7438434 2.38376275 21.3857473 2.39690687 20.993274 2.55994457 20.6553559 2.75698004 20.2469395 3.11604213 19.9619573 3.5553592 19.8601957 4.3141796 19.684573 5.07969845 20.1175267 5.29998891 20.8460498 6.8774102 26.0647865 11.6446829 29.6564591 17.1628137 29.7836299 20.9696807 29.8714413 24.5829246 28.2839858 27.0762639 25.4285587 28.1087095 24.2462811 28.30802 22.5629181 27.509388 21.141121 27.1646075 20.5273132 26.6368204 20.0218683 26.0059024 19.6970285 24.3891752 18.8645018 22.4730399 19.2512456 21.382204 20.5303025 21.2794523 20.6507473 20.4771552 21.7153203 18.6642772 22.1924911 18.6086674 22.2070641 18.4409534 22.2247509 18.2354501 22.2436833 17.6480089 22.2979893 17.1990865 22.7853737 17.1990865 23.3669217 17.1990865 24.0118683 17.7482328 24.5256584 18.4019002 24.4937722 18.4779845 24.4900356 18.5279069 24.4871708 18.5376386 24.4858007 20.3377517 24.262847 21.4131685 23.4747865 21.4131685 23.4747865L21.4072284 23.4746619C22.0241175 23.0905338 22.5893149 22.6198399 23.0769113 22.0637011 23.5846031 21.484395 24.413694 21.3457651 25.0805055 21.7947865 25.2799424 21.9290569 25.4420953 22.1167616 25.5478803 22.3308719 25.8179667 22.8775445 25.744031 23.469306 25.3668958 23.906121 23.3246275 26.2720463 20.3538027 27.5875979 17.2166541 27.5152313 12.7587738 27.4124733 8.85244124 24.4621352 7.49632151 20.1740747L7.47900665 20.1183986C6.91380931 18.294911 5.00917517 17.1999466 3.14334146 17.6261744L3.09127051 17.6380071C2.08005765 17.8678114 1.17222838 18.4590747.631929047 19.3324555.0817716186 20.2219039-.0581374723 21.2628114.23735255 22.2546441 2.44809313 29.6753915 9.20063415 34.7826512 17.0399667 34.9632562 23.5052328 35.1122242 29.5751641 31.7929537 32.8924124 26.2978292 33.0620222 26.0170819 33.1206652 25.6749288 33.0218315 25.3630427L33.0218315 25.3630427zM32.8295987 8.5605516C29.5736475 3.25325623 23.887929.0533096085 17.620204.000622775801 9.69227494-.0660142349 2.56904435 5.11261566.284115299 12.5987544.205756098 12.8555872.205503326 13.1358363.309898004 13.383452.451450111 13.7193772.731521064 13.9607651 1.07996674 14.0531851 1.68383814 14.2121174 2.30009534 13.8724555 2.48107982 13.2765836 4.46457871 6.73781139 10.6820022 2.21160142 17.6007406 2.26976868 23.0857583 2.31585409 28.0522151 5.12208185 30.8859113 9.77658363 31.1225055 10.1653203 31.1562506 10.6311566 30.9784257 11.0547687 30.7866984 11.5115125 30.3880776 11.8358541 29.8930244 11.9336299 29.2801796 12.0546975 28.6520421 11.7581317 28.3284945 11.2311388 26.025745 7.47991103 22.0081929 5.21886121 17.5754634 5.18161922 12.755235 5.14113879 8.2507184 7.87176157 6.09963193 12.1381495 5.53557206 13.2570285 5.57411973 14.5697153 6.22412195 15.6605694 6.73194013 16.5126512 7.59679823 17.1006762 8.56541907 17.3562633L8.59120177 17.3631139C8.89174723 17.4424555 9.19494678 17.4820641 9.49549224 17.4846846 10.9319933 17.496637 12.3016364 16.6621174 12.9580843 15.2879004 12.9764102 15.2495374 12.9951153 15.2136655 13.0144523 15.1804093 13.1241552 14.9914591 13.2478869 14.8078648 13.3817295 14.6341103 13.8733703 13.9965125 14.51402 13.4891993 15.2346718 13.1438078 15.5991685 12.9871174 15.9520377 12.8908363 16.2551109 12.8317972 16.7913659 12.7272954 17.1845521 12.274911 17.1845521 11.73621L17.1845521 11.6546263C17.1845521 10.9427936 16.5186253 10.4296263 15.80998 10.5672598 14.6388891 10.7946975 13.7407916 11.3589324 13.7407916 11.3589324L13.7440776 11.3652847C12.5244545 12.0646619 11.5079335 13.0959786 10.8533814 14.3539858 10.5601663 14.9174733 9.94795344 15.2785587 9.31160089 15.1902491 8.79695787 15.118879 8.36850998 14.7975267 8.15984701 14.3386655 7.97936807 13.9418327 7.98846785 13.4930605 8.18499778 13.1074377 9.97929712 9.58464413 13.5701707 7.41701068 17.556 7.45051601 21.2024834 7.48115658 24.5022905 9.34761566 26.3831641 12.4431851 27.2883392 13.9332384 29.1113282 14.6019751 30.828153 14.0315125 31.7459667 13.7266014 32.520459 13.0698221 32.960408 12.219484 33.5719889 11.0368327 33.5177694 9.68241993 32.8295987 8.5605516L32.8295987 8.5605516z"/>
  </g>
</svg>
