<svg xmlns="http://www.w3.org/2000/svg" width="80" height="35" viewBox="0 0 80 35">
  <g fill="#FFF" fill-rule="evenodd">
    <path d="M33.6908901,12.4360209 C37.4747644,3.09319372 30.3949738,0.560418848 25.7754974,0.563766314 L10.4959162,0.563766314 C11.7704712,1.44 11.5602094,2.5947644 11.3114136,3.30806283 L2.40921466,31.7620942 C2.05235602,32.8892147 0.723769634,34.0707853 0.00879581152,34.2588482 L12.3798953,34.2546597 C11.7005236,34.1302618 10.7246073,33.1660733 11.0756021,31.8416754 L14.3086911,21.5509948 C14.3086911,21.5509948 29.1874346,23.558534 33.6908901,12.4360209 Z M21.6703665,3.16900524 C23.2837696,3.16900524 27.7692147,3.38429319 24.8783246,11.8659686 C21.8437696,20.7698429 15.1250262,18.9373822 15.1250262,18.9373822 L20.0762304,3.16900524 C20.0762304,3.16900524 21.6125654,3.16900524 21.6703665,3.16900524 L21.6703665,3.16900524 Z"/>
    <path d="M43.5798953,34.2588482 L51.895288,34.2546597 C49.2335079,33.4006283 45.2954974,30.8850262 43.7310995,29.0919372 C44.998534,27.7055497 46.5658639,25.9685864 46.8510995,22.4297382 L42.5344503,22.4297382 C42.5344503,22.4297382 43.365445,22.904712 43.365445,23.9162304 C43.365445,24.855288 42.9926702,26.1436649 42.2626178,27.0605236 C41.0006283,25.1874346 39.6481675,23.0487958 39.1761257,19.9149738 C40.8649215,19.0697382 43.246911,18.1608377 45.1401047,16.5051309 C46.9306806,14.9319372 47.346178,13.4521466 47.3746597,12.485445 C47.3746597,12.4427225 47.3746597,12.4050262 47.3746597,12.3627225 C47.3746597,11.354555 46.9788482,10.4033508 46.2517277,9.6791623 C45.0023037,8.44062827 43.026178,7.93424084 40.9629319,8.32125654 C39.2980105,8.63455497 37.8806283,9.5191623 37.1719372,10.1801047 C34.6546597,12.5285864 34.3308901,16.4159162 34.3308901,18.1700524 C34.3308901,18.5976963 34.3497382,18.9227225 34.366911,19.111623 C34.2236649,19.1690052 33.9652356,19.2670157 33.9652356,19.2670157 C32.1327749,19.9409424 27.2318325,21.2540314 25.4760209,25.2812565 C25.2519372,25.7884817 24.935288,26.8921466 24.935288,28.1805236 C24.935288,29.2858639 25.1685864,30.5202094 25.8852356,31.646911 C27.1204188,33.5757068 29.222199,34.7979058 32.5729843,34.7396859 C36.2236649,34.6793717 39.8127749,32.1868063 40.4573822,31.7327749 C41.0927749,32.3183246 42.7250262,33.8529843 43.5798953,34.2588482 Z M43.5782199,11.7587435 C43.1455497,14.4724607 39.6376963,17.205445 38.7786387,17.5786387 C38.6265969,16.0536126 38.6927749,13.6502618 39.9736126,11.6837696 C40.8196859,10.3828272 41.9329843,9.80858639 42.838534,10.1235602 C43.558534,10.3690052 43.6460733,11.0420942 43.5782199,11.7587435 Z M38.6927749,29.881466 C38.2018848,30.1880628 36.2743455,31.1656545 34.4569634,31.3382199 C32.7815707,31.4936126 29.991623,30.8443979 29.9974777,27.4818848 C30.0008377,24.6106806 33.1250262,22.5114136 34.8108901,21.7817801 C35.5128796,24.565445 37.0492147,27.7038743 38.6927749,29.881466 L38.6927749,29.881466 Z"/>
    <path d="M68.8686911,3.20418848 C73.8115183,2.02052356 77.8910995,5.88691099 78.2584293,6.15287958 L79.6728796,1.66073298 C77.7151832,1.07434555 63.5275393,-3.73109948 53.5053403,7.72188482 C47.3436649,14.7652356 45.8303665,29.1932984 53.6494241,33.0617801 C62.0255497,37.2012565 71.2645026,32.424712 71.9438743,32.0934031 L75.7713089,19.9225131 C76.182199,18.452356 77.1179058,17.4919372 78.7681675,16.88 L65.4768586,16.88 C67.4173822,17.6887958 67.2758115,19.1509948 67.1179058,19.7478534 L63.3017801,31.9191623 C62.7920419,32.0213613 52.1122513,34.6848168 58.0904712,15.9932984 C59.3809424,11.9811518 62.9842932,4.62031414 68.8686911,3.20418848"/>
  </g>
</svg>
