<svg xmlns="http://www.w3.org/2000/svg" width="156" height="42" viewBox="0 0 156 42">
  <g fill="none" fill-rule="evenodd" transform="translate(-17 -27)">
    <polyline fill="#FFF" fill-rule="nonzero" points="161.632 52.119 161.632 62.339 155.375 62.316 155.375 37.497 166.643 47.386 166.643 38.244 172.846 38.244 172.846 63.324 161.632 52.119"/>
    <path fill="#FFF" fill-rule="nonzero" d="M34.646802,62.4309615 L32.9938239,57.9291992 L25.2735074,57.9291992 L23.6209478,62.4309615 L17.0023378,62.4309615 L29.1378514,27.0003376 L41.2733651,62.4309615 L34.646802,62.4309615 M27.160054,51.4644516 L30.8356178,51.4644516 L28.994278,45.2771427 L27.160054,51.4644516"/>
    <rect width="189" height="96" x=".629" y=".261"/>
    <polygon fill="#FFF" fill-rule="nonzero" points="70.274 38.504 76.493 38.504 76.493 62.692 70.274 62.692"/>
    <path fill="#FFF" fill-rule="nonzero" d="M39,50.5325948 C39,43.6679088 44.4641624,38.0965137 51.1957894,38.0965137 C54.2296678,38.0965137 57.0069558,39.2352927 59.142977,41.1052292 L55.1128747,45.7687597 C54.0563751,44.8604682 52.6901252,44.3141274 51.1957894,44.3141274 C47.8299759,44.3141274 45.0978947,47.1000384 45.0978947,50.532168 C45.0978947,53.9642976 47.8299759,56.7502086 51.1957894,56.7502086 C52.7127286,56.7502086 54.1015819,56.1808191 55.1731504,55.2417959 L59.1957183,59.9130093 C57.0596971,61.8136775 54.2602243,62.9605662 51.1957894,62.9605662 C44.4637438,62.960993 39,57.396854 39,50.5325948"/>
    <polyline fill="#FFF" fill-rule="nonzero" points="88.334 68.225 76.569 36.349 66.735 36.349 66.735 62.784 60.297 62.784 60.297 36.349 46.048 36.349 49.354 30 81.165 30 88.334 49.101 95.511 30 126.311 30 129.707 36.349 100.107 36.349 88.334 68.225"/>
    <path fill="#FFF" fill-rule="nonzero" d="M108.213282,62.5994691 L108.213282,57.2585615 L112.484905,57.2585615 C113.179332,57.2585615 114.499956,57.2047811 114.831892,56.081368 C115.518784,53.7419198 108.484941,49.9478395 108.484941,44.1301643 C108.484941,39.7282798 111.609233,38.4123669 113.730185,38.4123669 L120.205222,38.4123669 L120.205222,43.6606527 L116.205257,43.6606527 C116.205257,43.6606527 115.058344,43.6606527 114.741059,44.1301643 C113.005202,46.6621121 121.171308,50.3635707 121.171308,57.1663665 C121.171308,60.7218496 118.182636,62.5994691 115.201499,62.5994691 L108.213282,62.5994691"/>
    <polygon fill="#FFF" fill-rule="nonzero" points="100.198 38.412 106.425 38.412 106.425 62.599 100.198 62.599"/>
    <polygon fill="#FFF" fill-rule="nonzero" points="122.183 38.412 128.409 38.412 128.409 62.599 122.183 62.599"/>
    <path fill="#FFF" fill-rule="nonzero" d="M129.540844,50.5249119 C129.540844,43.6525429 135.012541,38.0734649 141.759237,38.0734649 C148.498817,38.0734649 153.970095,43.6525429 153.970095,50.5249119 C153.970095,57.4049638 148.498398,62.9840418 141.759237,62.9840418 C135.012541,62.9840418 129.540844,57.404537 129.540844,50.5249119 M135.69148,50.5249119 C135.69148,53.9416757 138.408492,56.7122208 141.759237,56.7122208 C145.102447,56.7122208 147.819459,53.9416757 147.819459,50.5249119 C147.819459,47.115831 145.102447,44.3452859 141.759237,44.3452859 C138.408492,44.3452859 135.69148,47.1154042 135.69148,50.5249119"/>
  </g>
</svg>
