<svg xmlns="http://www.w3.org/2000/svg" width="155" height="27" viewBox="0 0 155 27">
  <g fill="#FFF" transform="translate(.224 .525)">
    <g transform="translate(28.785 3.273)">
      <path d="M46.2215455 13.1524364C46.0749421 13.4712 45.309124 14.9151273 43.3912314 14.9151273 41.1700909 14.9151273 40.3038595 13.1138182 40.3038595 11.7752727 40.3038595 9.56225455 41.8281322 7.57374545 44.0720331 7.57374545 46.4873058 7.57374545 47.0630083 9.33250909 47.1185702 9.65127273L50.6705207 9.65127273C50.8833967 8.35265455 49.8297273 4.38218182 44.208595 4.38218182 40.0970083 4.38218182 36.8074711 7.59338182 36.8074711 11.8852364 36.8074711 15.3968727 39.0520413 18.1047273 43.2118264 18.1047273 48.3964959 18.1047273 49.7962562 14.1283636 49.9676281 13.1524364L46.2215455 13.1524364 46.2215455 13.1524364zM18.9606942 14.1198545C18.9606942 13.9169455 19.0155868 13.5333818 19.1983388 12.7269818 19.3750661 11.9186182 21.8847273.613963636 21.8847273.613963636L18.5510083.613963636 15.7849587 13.0843636C15.6684793 13.6086545 15.6182727 14.1257455 15.6182727 14.5826182 15.6182727 17.3173091 17.781843 18.1210909 19.5136364 18.1210909 20.1335207 18.1210909 20.7085537 18.0202909 20.8524793 18.0019636 20.9073719 17.7283636 21.4301901 15.3805091 21.4556281 15.2777455 21.3806529 15.2829818 21.0131405 15.3098182 20.586719 15.3098182 19.3476198 15.3104727 18.9606942 14.796 18.9606942 14.1198545z"/>
      <polygon points="61.656 4.425 55.684 9.684 57.697 .587 54.339 .587 50.527 17.846 53.882 17.846 54.809 13.652 56.873 12.045 59.728 17.846 63.463 17.846 59.412 10.077 66.307 4.425"/>
      <path d="M.635280992 12.5109818C.914429752 11.2738909 3.27949587.592363636 3.27949587.592363636 3.27949587.592363636 7.35493388.592363636 9.63163636.592363636 14.2406033.592363636 15.3746033 3.09730909 15.3746033 4.61716364 15.3746033 7.97956364 12.1265702 8.86974545 11.7289339 8.99149091 12.099124 9.11061818 14.2071322 9.92749091 14.2071322 12.5679273 14.2071322 15.4407273 11.4986529 17.847491 7.2993719 17.847491 7.2993719 17.847491 5.79317355 17.847491 5.38415702 17.847491 1.85764463 17.8481455-.0361487603 15.4806545.635280992 12.5109818L.635280992 12.5109818zM10.580876 12.2995636C10.580876 11.4885818 10.0466777 10.4596364 7.67491736 10.4596364L4.59490909 10.4596364 3.67244628 14.6336727 7.15946281 14.6336727C9.41608264 14.6336727 10.580876 13.6394182 10.580876 12.2995636L10.580876 12.2995636zM11.7235785 5.34567273C11.7235785 4.50654545 11.0702231 3.78458182 9.47030579 3.78458182L6.07165289 3.78458182 5.30114876 7.26872727 8.84238843 7.26872727C10.7495702 7.26807273 11.7235785 6.36807273 11.7235785 5.34567273L11.7235785 5.34567273zM64.7772397 12.5109818C65.0570579 11.2738909 67.4214545.592363636 67.4214545.592363636 67.4214545.592363636 71.4968926.592363636 73.7762727.592363636 78.3852397.592363636 79.5199091 3.09730909 79.5199091 4.61716364 79.5199091 7.97956364 76.271876 8.86974545 75.8735702 8.99149091 76.238405 9.11061818 78.352438 9.92749091 78.352438 12.5679273 78.352438 15.4407273 75.6406116 17.847491 71.4413306 17.847491 71.4413306 17.847491 69.9364711 17.847491 69.5274545 17.847491 65.9996033 17.8481455 64.1051405 15.4806545 64.7772397 12.5109818L64.7772397 12.5109818zM74.7228347 12.2995636C74.7228347 11.4885818 74.1879669 10.4596364 71.8175455 10.4596364L68.7355289 10.4596364 67.8137355 14.6336727 71.3020909 14.6336727C73.5580413 14.6336727 74.7228347 13.6394182 74.7228347 12.2995636zM75.8648678 5.34567273C75.8648678 4.50654545 75.2141901 3.78458182 73.6102562 3.78458182L70.2129421 3.78458182 69.4437769 7.26872727 72.985686 7.26872727C74.8915289 7.26807273 75.8648678 6.36807273 75.8648678 5.34567273L75.8648678 5.34567273zM102.570769 4.43323636C99.0134628 4.43323636 96.5941736 6.49178182 95.7788182 10.3549091 95.4280413 12.0154909 94.1380661 17.8527273 94.1380661 17.8527273L97.4697769 17.8527273C97.4697769 17.8527273 98.6974959 12.3021818 99.0857603 10.5578182 99.5945207 8.27149091 100.830942 7.4952 102.493116 7.4952 103.030661 7.4952 103.372736 7.55476364 103.547455 7.57898182 103.639165 7.11883636 104.103744 5.05505455 104.214868 4.54909091 103.85405 4.50392727 103.284372 4.43323636 102.570769 4.43323636zM113.907421 22.9869818L125.089438 4.43323636 121.490628 4.43323636 116.352149 13.1648727 115.151876 4.42276364C115.151876 4.42276364 113.320339 4.42276364 111.301364 4.42276364 106.891215 4.42276364 104.60581 6.39490909 103.79514 10.1683636 103.388802 12.0514909 102.096818 17.8527273 102.096818 17.8527273L105.429868 17.8527273C105.429868 17.8527273 106.652901 12.3427636 107.13957 10.1192727 107.610174 7.96058182 109.247579 7.3008 111.013512 7.66865455L111.715736 4.50130909C112.235876 7.5096 113.826421 17.1202909 113.826421 17.1202909L110.337397 22.9869818 113.907421 22.9869818 113.907421 22.9869818zM28.5849669 12.1293818C29.3186529 12.0233455 31.4654876 11.6993455 31.7580248 11.6587636 31.7031322 11.8826182 31.6167769 12.2406545 31.5531818 12.5050909 31.1655868 14.1277091 29.4752975 15.1697455 27.6109587 15.1697455 26.4213967 15.1697455 25.7265372 14.544 25.7265372 13.8004364 25.7272066 13.1864727 26.3029091 12.4592727 28.5849669 12.1293818zM27.3378347 8.63476364C27.4201736 8.50189091 28.2777025 7.20916364 30.4138264 7.20916364 31.7419587 7.20916364 32.4227603 7.68305455 32.4227603 8.25643636 32.4227603 9.06545455 31.0839174 9.27621818 28.7650413 9.60087273 24.781314 10.1637818 22.2636198 11.3727273 22.2636198 14.1859636 22.2636198 16.1797091 23.9565868 18.1224 26.9636281 18.1224 29.4619091 18.1224 30.7679504 16.6477091 30.8837603 16.5344727 30.8951405 16.8885818 30.942 17.4187636 30.9808264 17.8461818 31.2546198 17.8461818 33.5647934 17.8461818 34.4256694 17.8461818 34.3065124 17.2642909 34.0601653 16.1469818 34.4691818 14.3594182 34.685405 13.4181818 35.2932397 10.7129455 35.6031818 9.21992727 36.1929421 6.39556364 34.6077521 4.3992 30.5457025 4.3992 25.322876 4.3992 23.8180165 8.06989091 23.5743471 8.63541818L27.3378347 8.63541818 27.3378347 8.63476364zM89.2358926 13.8253091C89.1140579 14.0877818 88.3033884 15.1939636 86.4912645 15.1939636 83.8818595 15.1939636 83.2880826 13.0306909 83.3483306 12.4376727 84.7407273 12.4376727 92.7851653 12.4376727 93.5128264 12.4376727 93.5710661 12.1948364 93.8006777 11.3098909 93.8006777 10.4013818 93.8006777 7.2576 91.6210413 4.38283636 87.2249504 4.38283636 83.2050744 4.38283636 79.9798017 7.68829091 79.9798017 11.6136 79.9798017 15.4112727 82.3120661 18.1053818 86.4363719 18.1053818 91.5326777 18.1053818 92.9056612 14.2023273 93.0375372 13.8259636 92.1291322 13.8253091 89.2358926 13.8253091 89.2358926 13.8253091L89.2358926 13.8253091zM87.2604298 7.36298182C89.5043306 7.36298182 90.3618595 8.70218182 90.2701488 9.77629091 88.980843 9.77629091 85.1463967 9.77629091 83.8517355 9.77629091 84.0177521 9.09425455 85.088157 7.36298182 87.2604298 7.36298182L87.2604298 7.36298182z"/>
    </g>
    <path d="M8.33496694 1.89556364C8.33496694 1.06821818 7.81683471.0209454545 5.63920661.0209454545 4.74552893.0209454545 2.28607438.0209454545 2.28607438.0209454545L1.33281818 4.33309091C1.33281818 4.33309091 3.14494215 4.33309091 4.82853719 4.33309091 7.5577686 4.33309091 8.33496694 3.06981818 8.33496694 1.89556364L8.33496694 1.89556364zM17.3674711 1.89556364C17.3674711 1.06821818 16.8506777.0209454545 14.673719.0209454545 13.7793719.0209454545 11.3199174.0209454545 11.3199174.0209454545L10.3673306 4.33243662C10.3673306 4.33243662 12.1787851 4.33243662 13.8610413 4.33243662 16.5916116 4.33309091 17.3674711 3.06981818 17.3674711 1.89556364L17.3674711 1.89556364zM7.12532231 8.38538182C7.12532231 7.55803636 6.60719008 6.50814545 4.42956198 6.50814545 3.5358843 6.50814545 1.07642975 6.50814545 1.07642975 6.50814545L.123173554 10.8229091C.123173554 10.8229091 1.93529752 10.8229091 3.61755372 10.8229091 6.34745455 10.8229091 7.12532231 9.55636364 7.12532231 8.38538182zM16.1578264 8.38538182C16.1578264 7.55803636 15.6390248 6.50814545 13.463405 6.50814545 12.5683884 6.50814545 10.1102727 6.50814545 10.1102727 6.50814545L9.15567769 10.8229091C9.15567769 10.8229091 10.9678017 10.8229091 12.6513967 10.8229091 15.3819669 10.8229091 16.1578264 9.55636364 16.1578264 8.38538182L16.1578264 8.38538182zM25.6080496 5.75345455C25.6080496 4.92545455 25.0892479 3.87621818 22.9136281 3.87621818 22.0186116 3.87621818 19.5604959 3.87621818 19.5604959 3.87621818L18.6059008 8.19032727C18.6059008 8.19032727 20.4193636 8.19032727 22.100281 8.19032727 24.8308512 8.19032727 25.6080496 6.92705455 25.6080496 5.75345455L25.6080496 5.75345455zM24.3053554 12.5103273C24.3053554 11.6823273 23.7878926 10.6357091 21.6109339 10.6357091 20.7172562 10.6357091 18.2578017 10.6357091 18.2578017 10.6357091L17.3045455 14.9478545C17.3045455 14.9478545 19.1153306 14.9478545 20.7989256 14.9478545 23.5288264 14.9478545 24.3053554 13.6813091 24.3053554 12.5103273zM14.8598182 15.1429091C14.8598182 14.3116364 14.3430248 13.2624 12.167405 13.2624 11.271719 13.2624 8.81226446 13.2624 8.81226446 13.2624L7.85900826 17.5765093C7.85900826 17.5765093 9.67113223 17.5765093 11.3533884 17.5765093 14.0839587 17.5771636 14.8598182 16.3138909 14.8598182 15.1429091L14.8598182 15.1429091z"/>
  </g>
</svg>
