<svg xmlns="http://www.w3.org/2000/svg" width="97" height="100" viewBox="0 0 97 100">
  <g fill="#706BF6">
    <g transform="translate(12.721)">
      <path d="M23.7483033,71.8230159 C23.3340656,71.8230159 22.9301639,71.6611111 22.6280328,71.3619048 L13.0806885,61.8928571 C12.6632705,61.4785714 12.5082295,60.868254 12.6791721,60.3063492 C14.9849098,52.7134921 17.9775984,45.1325397 21.5745492,37.7746032 C25.1667295,30.397619 29.6374754,21.2126984 35.6594262,14.8190476 C35.6610164,14.8174603 35.6634016,14.815873 35.6649918,14.8134921 C49.1686639,0.616666667 70.8553197,-0.00317460317 82.5772131,0.892857143 C83.3635492,0.953174603 83.9868934,1.57936508 84.0425492,2.36428571 C84.8614836,14.0634921 84.1355738,35.6730159 70.0745492,48.9579365 C63.748082,54.9531746 54.4130246,59.3809524 46.9122213,62.9388889 C39.5028525,66.5015873 31.8597295,69.4690476 24.2038852,71.7555556 C24.0544098,71.8007937 23.900959,71.8230159 23.7483033,71.8230159 Z M16.0034098,60.315873 L24.1959344,68.4412698 C31.3898361,66.2412698 38.5654508,63.4285714 45.5399098,60.0746032 C53.224377,56.4293651 61.9257541,52.302381 67.8864836,46.6531746 C80.4774016,34.7579365 81.5785902,15.3515873 80.956041,3.96190476 C69.5402541,3.27063492 50.0694918,4.28333333 37.9731148,16.9968254 C32.2843033,23.0388889 27.9312295,31.9801587 24.434459,39.1650794 C21.0537705,46.0785714 18.2200984,53.1896825 16.0034098,60.315873 Z"/>
      <path d="M52.4587131 41.0253968C50.1895492 41.0253968 47.9195902 40.168254 46.191877 38.4547619 44.5150492 36.7912698 43.5911639 34.5785714 43.5911639 32.2246032 43.5911639 29.8706349 44.5150492 27.6579365 46.191877 25.9944444 49.6488934 22.5666667 55.270918 22.5674603 58.7263443 25.9944444 60.4039672 27.6579365 61.3278525 29.8706349 61.3278525 32.2246032 61.3278525 34.5777778 60.4039672 36.7904762 58.7271393 38.4539683 56.9986311 40.1690476 54.7286721 41.0253968 52.4587131 41.0253968zM52.4587131 26.5968254C51.0005328 26.5968254 49.5431475 27.1468254 48.4332131 28.247619 47.3614426 29.3103175 46.7714918 30.7230159 46.7714918 32.2253968 46.7714918 33.7277778 47.3614426 35.1396825 48.4340082 36.2031746 50.653877 38.4047619 54.2659344 38.4039683 56.4842131 36.2031746 57.5567787 35.1404762 58.1475246 33.7269841 58.1475246 32.2253968 58.1475246 30.7230159 57.5567787 29.3103175 56.4850082 28.247619 55.3750738 27.1468254 53.9168934 26.5968254 52.4587131 26.5968254zM17.6476393 51.1412698C17.6055 51.1412698 17.5633607 51.1396825 17.5196311 51.1365079L1.5917541 49.8690476C1.10993443 49.8309524.671844262 49.5753968.400721311 49.1753968.129598361 48.7753968.0556557377 48.2738095.200360656 47.8134921.732270492 46.115873 6.10304918 30.952381 30.7323033 21.0492063 31.3564426 20.7968254 32.0744016 20.9666667 32.5196475 21.4738095 32.9656885 21.9793651 33.0420164 22.7111111 32.7120574 23.2984127 32.5101066 23.6579365 32.1880984 23.9111111 31.8223607 24.0325397 12.7443689 31.7301587 6.03546721 42.4531746 3.98733607 46.8738095L17.7724672 47.9706349C18.6478525 48.0404762 19.3006148 48.8055556 19.2314426 49.6793651 19.1646557 50.5111111 18.468959 51.1412698 17.6476393 51.1412698zM36.4171393 84.2873016C36.1022869 84.2873016 35.7914098 84.1944444 35.5250574 84.0142857 35.1259262 83.7444444 34.8715 83.3079365 34.832541 82.8277778L33.5548443 67.0357143C33.484082 66.1619048 34.1360492 65.3960317 35.0114344 65.3253968 35.8907951 65.25 36.6532787 65.9063492 36.724041 66.7801587L37.8307951 80.4468254C42.2697377 78.4293651 53.078082 71.8015873 60.848418 52.9214286 60.9462131 52.5666667 61.1672459 52.2436508 61.4987951 52.0230159 61.5536557 51.9865079 61.6260082 51.9452381 61.6848443 51.915873 62.2755902 51.6206349 62.9911639 51.7214286 63.476959 52.1714286 63.9627541 52.6214286 64.1185902 53.3238095 63.8681393 53.9357143 53.8811148 78.365873 38.5956639 83.6904762 36.8854426 84.2174603 36.7319918 84.2634921 36.5745656 84.2873016 36.4171393 84.2873016zM79.8850656 31.0611111C79.4795738 31.0611111 79.074082 30.9079365 78.7647951 30.6L54.1180492 6.15714286C53.4947049 5.53888889 53.4915246 4.53412698 54.1100984 3.91190476 54.7286721 3.28968254 55.7368361 3.28730159 56.3585902 3.9047619L81.004541 28.347619C81.6278852 28.965873 81.6310656 29.9706349 81.0124918 30.5928571 80.7024098 30.9047619 80.2929426 31.0611111 79.8850656 31.0611111z"/>
    </g>
    <path d="M2.54744262 33.3380952C2.14990164 33.3380952 1.75156557 33.1896825 1.44227869 32.8920635.810983607 32.2833333.793491803 31.2785714 1.40331967 30.647619L23.1774344 8.14444444C23.7888525 7.51507937 24.7938361 7.4968254 25.4259262 8.10555556 26.0572213 8.71428571 26.0747131 9.71904762 25.4648852 10.35L3.69156557 32.8539683C3.37909836 33.1761905 2.96406557 33.3380952 2.54744262 33.3380952zM17.8694672 34.2873016C17.4933934 34.2873016 17.1173197 34.1547619 16.8143934 33.8865079 16.1576557 33.3039683 16.0988197 32.3007937 16.6816148 31.6452381L30.7935246 15.7904762C31.3779098 15.1357143 32.3813033 15.0761905 33.038041 15.6579365 33.6947787 16.2404762 33.7536148 17.2436508 33.1708197 17.8992063L19.0589098 33.7539683C18.7440574 34.1071429 18.3075574 34.2873016 17.8694672 34.2873016zM1.58936885 19.0920635C1.21329508 19.0920635.837221311 18.9595238.534295082 18.6912698-.122442623 18.1087302-.181278689 17.1055556.401516393 16.45L14.5142213.595238095C15.0978115-.0595238095 16.102-.119047619 16.7587377.462698413 17.4154754 1.0452381 17.4743115 2.0484127 16.8915164 2.70396825L2.77881148 18.5587302C2.4647541 18.9119048 2.0282541 19.0920635 1.58936885 19.0920635z" transform="translate(0 65.08)"/>
  </g>
</svg>
