<svg xmlns="http://www.w3.org/2000/svg" width="100" height="100" viewBox="0 0 100 100">
  <g fill="#706BF6">
    <path d="M49.6124031 11.0267917C50.4686045 11.0267917 51.1627907 10.3271822 51.1627907 9.46429171L51.1627907 1.5625C51.1627907.699609297 50.4686045 0 49.6124031 0 48.7562017 0 48.0620155.699609375 48.0620155 1.5625L48.0620155 9.46429171C48.0620155 10.3271822 48.7562017 11.0267917 49.6124031 11.0267917zM49.6124031 89.060758C48.7562017 89.060758 48.0620155 89.7603675 48.0620155 90.623258L48.0620155 98.4375C48.0620155 99.3003905 48.7562017 100 49.6124031 100 50.4686045 100 51.1627907 99.3003905 51.1627907 98.4375L51.1627907 90.623258C51.1627907 89.7603675 50.4686045 89.060758 49.6124031 89.060758zM98.1939975 48.4375L89.3213799 48.4371704C88.3465254 48.4371704 87.5561383 49.1367799 87.5561383 49.9996704 87.5561383 50.8625609 88.3465254 51.5621704 89.3213799 51.5621704L98.1939975 51.5625C99.168852 51.5625 99.9592391 50.8628905 99.9592391 50 99.9592391 49.1371095 99.168852 48.4375 98.1939975 48.4375zM10.9777643 48.4375L1.42533652 48.4375C.638201552 48.4375 0 49.1371095 0 50 0 50.8628905.638201552 51.5625 1.42533652 51.5625L10.9777643 51.5625C11.7649062 51.5625 12.4031008 50.8628905 12.4031008 50 12.4031008 49.1371095 11.7649062 48.4375 10.9777643 48.4375zM20.2303203 22.4567673C20.5327223 22.7619237 20.9297776 22.9145012 21.3265208 22.9145012 21.7231887 22.9145012 22.1198551 22.7619238 22.422646 22.4567673 23.0283046 21.8464545 23.0283046 20.8576269 22.422646 20.2473141L15.5866091 13.5987888C14.9818021 12.9884759 13.9999419 12.9884759 13.3942833 13.5987888 12.7887016 14.2091791 12.7887016 15.1979292 13.3942833 15.808242L20.2303203 22.4567673zM20.293969 77.252834L14.5314726 83.1459403C13.9258909 83.7554693 13.9258909 84.7450018 14.5310853 85.3553891 14.8338761 85.660547 15.2306195 85.813123 15.6276747 85.813123 16.0243412 85.813123 16.4210076 85.6605471 16.7237984 85.3553891L22.4862948 79.4622889C23.0918765 78.8526764 23.0918765 77.8631439 22.4866822 77.2528341 21.8817983 76.6432216 20.9003255 76.6424407 20.293969 77.252834zM78.615505 22.3327339C79.0122453 22.3327339 79.4093051 22.1801565 79.7117071 21.875L86.0499357 15.7503905C86.6555204 15.1400776 86.6555204 14.1513275 86.0499357 13.5409372 85.4450549 12.9306244 84.4624184 12.9306244 83.8575375 13.5409372L77.5193798 19.6655467C76.9137183 20.2758595 76.9137183 21.2646872 77.5193798 21.875 77.8217819 22.1801564 78.2188357 22.3327339 78.615505 22.3327339zM80.1795309 72.2702324C79.9017026 71.9604671 79.5118583 71.7757821 79.0977478 71.7575013 78.7052716 71.7491388 78.3157348 71.8765616 78.0167395 72.1359372L74.5878293 68.5165644C78.3770539 63.3339048 80.620155 56.9320321 80.620155 50 80.620155 32.7407807 66.7378271 18.75 49.6124031 18.75 32.4869791 18.75 18.6046512 32.7407807 18.6046512 50 18.6046512 67.2592193 32.4869762 81.25 49.6124031 81.25 55.7972871 81.25 61.5537185 79.4182002 66.3914702 76.2733579L69.776124 79.8431277 69.5055052 80.08883 69.5236443 80.1093757C69.0452694 80.698359 69.0482975 81.5628111 69.5690717 82.142657L84.2190705 98.4603882C85.1369754 99.4529665 86.4065067 100 87.7944947 100L87.7948791 100C89.1328679 100 90.4258905 99.4865596 91.4357326 98.553437L94.3696074 95.8442987C95.4279818 94.8677362 96.0661245 93.5042978 96.1202281 92.1043755 96.1713155 90.790546 95.7193774 89.5492197 94.8651159 88.6283577L80.1795309 72.2702324zM21.7054264 50C21.7054264 34.4917178 34.2243402 21.875 49.6124031 21.875 65.000466 21.875 77.5193798 34.4917178 77.5193798 50 77.5193798 65.5082822 65.000466 78.125 49.6124031 78.125 34.2243402 78.125 21.7054264 65.5082822 21.7054264 50zM68.9343416 74.4323433C70.2507729 73.373437 71.4836416 72.2137511 72.6127151 70.956409L75.8296878 74.3522644 72.0820168 77.7519523 68.9343416 74.4323433zM92.2753445 93.5394526L89.3410853 96.2493777C88.904264 96.6529667 88.3550363 96.875 87.7948791 96.875 87.2766657 96.875 86.8126329 96.6812491 86.5030215 96.347034L72.9090668 81.2057793 79.0330221 75.6507814 92.5826316 90.7432795C92.9691462 91.1605477 93.0349601 91.6473448 93.0220907 91.9822634 92.9997643 92.554456 92.7279805 93.1221068 92.2753445 93.5394526z"/>
    <path d="M49.6124031,26.5625 C36.7686812,26.5625 26.3565891,37.0559365 26.3565891,50 C26.3565891,62.9440635 36.7686812,73.4375 49.6124031,73.4375 C62.456125,73.4375 72.8682171,62.9440605 72.8682171,50 C72.8682171,37.0559395 62.4561221,26.5625 49.6124031,26.5625 Z M49.6124031,70.3125 C38.4989154,70.3125 29.4573643,61.1999214 29.4573643,50 C29.4573643,38.7992978 38.4989154,29.6875 49.6124031,29.6875 C60.7258908,29.6875 69.7674419,38.7992978 69.7674419,50 C69.7674419,61.1999214 60.7258937,70.3125 49.6124031,70.3125 Z"/>
    <path d="M59.8924031,38.3918763 L45.250078,44.2589075 C44.8931022,44.4015623 44.6016267,44.673124 44.4320945,45.0203121 L37.3690702,59.4657839 C37.085505,60.0456238 37.1854265,60.7414067 37.6207751,61.2159372 C37.9201549,61.5432799 38.3357351,61.71875 38.7600773,61.71875 C38.9523262,61.71875 39.146512,61.6828919 39.3324031,61.6081238 L53.9751156,55.7426572 C54.3320943,55.5999995 54.6235668,55.3283572 54.7930991,54.9812496 L61.855736,40.5342192 C62.1393012,39.9543763 62.0393797,39.2585934 61.6040311,38.7832821 C61.1691497,38.3087486 60.4886018,38.1515622 59.8924031,38.3918763 Z M46.1028668,48.6725002 L50.9742619,53.5820305 L41.9312411,57.2044552 L46.1028668,48.6725002 Z M53.1223267,51.3282835 L48.2516267,46.4187502 L57.2935651,42.7963286 L53.1223267,51.3282835 Z"/>
  </g>
</svg>
