<svg xmlns="http://www.w3.org/2000/svg" width="100" height="100" viewBox="0 0 100 100">
  <g fill="#706BF6">
    <path d="M79.1397849,33.5145707 L75.6989247,33.5145707 L75.6989247,83.3333333 L44.7311828,83.3333333 L44.7311828,86.6666667 L75.6989247,86.6666667 L75.6989247,91.6666667 C75.6989247,94.4280904 73.3881363,96.6666667 70.5376344,96.6666667 L32.688172,96.6666667 C30.844081,96.6640435 29.1404668,95.7119034 28.2150538,94.1666667 L25.2352688,95.8333333 C26.7778974,98.4073771 29.6157587,99.9939295 32.688172,100 L70.5376344,100 C75.2861129,99.9944898 79.134097,96.2667553 79.1397849,91.6666667 L79.1397849,33.5145707 Z"/>
    <rect width="3.441" height="3.333" x="49.892" y="90"/>
    <path d="M60.2150538,44.9999993 L60.2150538,41.6666667 L54.9660215,41.6666667 C54.1090997,31.0307211 45.3876428,22.5818097 34.4086022,21.7516667 L34.4086022,16.6666667 L30.9677419,16.6666667 L30.9677419,21.7516667 C29.8085158,21.8375599 28.6580324,22.0114267 27.5268817,22.2716667 L27.5268817,13.3333333 L55.0537634,13.3333333 L55.0537634,9.99999928 L27.5268817,9.99999928 L27.5268817,8.33333333 C27.5268817,5.57190958 29.8376701,3.33333333 32.688172,3.33333333 L70.5376344,3.33333333 C71.7945725,3.33346058 73.0082642,3.77792774 73.9509677,4.58333333 L76.2270968,2.08333333 C74.6562751,0.740061498 72.6329025,-0.000844975096 70.5376344,-7.21948782e-07 L32.688172,-7.21948782e-07 C27.9396935,0.00551019389 24.0917094,3.73324475 24.0860215,8.33333333 L24.0860215,23.3333333 C16.3394449,26.4767236 11.0595905,33.5547772 10.4103226,41.6666667 L5.16129032,41.6666667 L5.16129032,44.9999993 L10.4137634,44.9999993 C11.2254138,55.6562746 19.9681938,64.1308052 30.9677419,64.9233333 L30.9677419,69.9999993 L34.4086022,69.9999993 L34.4086022,64.9233333 C45.4081503,64.1308052 54.1509303,55.6562746 54.9625806,44.9999993 L60.2150538,44.9999993 Z M30.9677419,58.3333333 L30.9677419,61.59 C28.5680345,61.380829 26.2319688,60.7279351 24.0860215,59.6666667 L24.0860215,56.6666667 C24.0860215,52.0642938 27.9373355,48.3333333 32.688172,48.3333333 C37.4390086,48.3333333 41.2903226,52.0642938 41.2903226,56.6666667 L41.2903226,59.6666667 C39.144441,60.7289403 36.8085067,61.3834947 34.4086022,61.595 L34.4086022,58.3333333 L30.9677419,58.3333333 Z M27.5268817,40 C27.5268817,37.2385763 29.8376701,35 32.688172,35 C35.538674,35 37.8494624,37.2385763 37.8494624,40 C37.8494624,42.7614237 35.538674,45 32.688172,45 C29.8376701,45 27.5268817,42.7614237 27.5268817,40 Z M45.304086,57 C45.1182796,57.1666667 44.9204301,57.3 44.7311828,57.4533333 L44.7311828,56.6666667 C44.7267423,52.3127154 42.2200118,48.3234385 38.2296774,46.32 C40.9934288,44.0649762 42.0078269,40.3770902 40.7688316,37.0887997 C39.5298364,33.8005093 36.301594,31.6128576 32.688172,31.6128576 C29.07475,31.6128576 25.8465077,33.8005093 24.6075125,37.0887997 C23.3685172,40.3770902 24.3829152,44.0649762 27.1466667,46.32 C23.1563323,48.3234385 20.6496018,52.3127154 20.6451613,56.6666667 L20.6451613,57.4616667 C20.4541935,57.31 20.2563441,57.1683333 20.0722581,57.0083333 C16.5069195,53.9111538 14.2852651,49.6203955 13.8546237,45 L17.2043011,45 L17.2043011,41.6666667 L13.8511828,41.6666667 C14.6913896,32.8680214 21.8852694,25.8989504 30.9677419,25.085 L30.9677419,28.3333333 L34.4086022,28.3333333 L34.4086022,25.085 C43.4910746,25.8989504 50.6849545,32.8680214 51.5251613,41.6666667 L48.172043,41.6666667 L48.172043,45 L51.5217204,45 C51.091079,49.6203955 48.8694246,53.9111538 45.304086,57.0083333 L45.304086,57 Z"/>
    <path d="M98.0645161,30 C99.0146834,30 99.7849462,29.2538079 99.7849462,28.3333333 L99.7849462,8.33333333 C99.7849462,7.41285875 99.0146834,6.66666667 98.0645161,6.66666667 L60.2150538,6.66666667 C59.2648865,6.66666667 58.4946237,7.41285875 58.4946237,8.33333333 L58.4946237,28.3333333 C58.4946237,29.2538079 59.2648865,30 60.2150538,30 L98.0645161,30 Z M61.9354839,10 L96.344086,10 L96.344086,26.6666667 L61.9354839,26.6666667 L61.9354839,10 Z"/>
    <rect width="6.882" height="3.333" x="65.376" y="13.333"/>
    <rect width="17.204" height="3.333" x="75.699" y="13.333"/>
    <rect width="27.527" height="3.333" x="65.376" y="20"/>
    <path d="M1.72043011,91.6666667 L39.5698925,91.6666667 C40.5200598,91.6666667 41.2903226,90.9204746 41.2903226,90 L41.2903226,76.6666667 C41.2903226,75.7461921 40.5200598,75 39.5698925,75 L27.5268817,75 L27.5268817,66.6666667 L24.0860215,66.6666667 L24.0860215,75 L1.72043011,75 C0.770262796,75 0,75.7461921 0,76.6666667 L0,90 C0,90.9204746 0.770262796,91.6666667 1.72043011,91.6666667 Z M3.44086022,78.3333333 L37.8494624,78.3333333 L37.8494624,88.3333333 L3.44086022,88.3333333 L3.44086022,78.3333333 Z"/>
    <rect width="8.602" height="3.333" x="6.882" y="81.667"/>
    <rect width="15.484" height="3.333" x="18.925" y="81.667"/>
    <path d="M1.72043011,23.3333333 L18.9247312,23.3333333 C19.8748985,23.3333333 20.6451613,22.5871412 20.6451613,21.6666667 L20.6451613,8.33333333 C20.6451613,7.41285875 19.8748985,6.66666667 18.9247312,6.66666667 L1.72043011,6.66666667 C0.770262796,6.66666667 0,7.41285875 0,8.33333333 L0,21.6666667 C0,22.5871412 0.770262796,23.3333333 1.72043011,23.3333333 Z M3.44086022,10 L17.2043011,10 L17.2043011,20 L3.44086022,20 L3.44086022,10 Z"/>
    <rect width="6.882" height="3.333" x="6.882" y="13.333"/>
  </g>
</svg>
