<svg xmlns="http://www.w3.org/2000/svg" width="95" height="100" viewBox="0 0 95 100">
  <path fill="#706BF6" d="M24.5553315,39.6458847 L16.8903951,48.2300347 C15.87016,49.3726211 15.8745696,51.1003124 16.9006239,52.237676 L24.5470895,60.7136516 C25.3080583,61.5571723 26.608754,61.624094 27.4522748,60.8631252 C27.4793899,60.8386638 27.5058487,60.8134847 27.5316232,60.7876146 C28.3940887,59.9219498 28.4399514,58.5366105 27.6366284,57.6157986 L22.9093462,52.1971343 C21.9286208,51.0729741 21.9229261,49.398983 22.8959804,48.2681764 L27.6477845,42.7460063 C28.4462796,41.8180585 28.3956639,40.43177 27.5316232,39.5645243 C26.7338946,38.7638367 25.4381224,38.7614379 24.6374348,39.5591665 C24.6092293,39.5872677 24.5818499,39.6161861 24.5553315,39.6458847 Z M70.0179784,39.6458847 L77.6829147,48.2300347 C78.7031499,49.3726211 78.6987403,51.1003124 77.672686,52.237676 L70.0262204,60.7136516 C69.2652516,61.5571723 67.9645558,61.624094 67.1210351,60.8631252 C67.09392,60.8386638 67.0674612,60.8134847 67.0416867,60.7876146 C66.1792211,59.9219498 66.1333585,58.5366105 66.9366815,57.6157986 L71.6639637,52.1971343 C72.6446891,51.0729741 72.6503838,49.398983 71.6773295,48.2681764 L66.9255254,42.7460063 C66.1270303,41.8180585 66.177646,40.43177 67.0416867,39.5645243 C67.8394152,38.7638367 69.1351875,38.7614379 69.9358751,39.5591665 C69.9640806,39.5872677 69.99146,39.6161861 70.0179784,39.6458847 Z M94.8957444,27.1472261 L94.8957444,73.3296651 C94.8957444,75.212823 93.8376687,76.9362586 92.1583572,77.7884299 L49.7104849,99.328722 C48.2883883,100.050369 46.6073561,100.050369 45.1852595,99.328722 L2.73738726,77.7884299 C1.05807569,76.9362586 -1.36689043e-14,75.212823 0,73.3296651 L0,27.1472261 C5.88285193e-15,25.2640682 1.05807569,23.5406327 2.73738726,22.6884613 L45.1852595,1.14816919 C46.6073561,0.42652227 48.2883883,0.42652227 49.7104849,1.14816919 L92.1583572,22.6884613 C93.8376687,23.5406327 94.8957444,25.2640682 94.8957444,27.1472261 Z M87.8294682,25.2868719 L49.6950389,6.10113647 C48.2813447,5.38989563 46.6143998,5.38989563 45.2007055,6.10113647 L7.06627626,25.2868719 C5.37845951,26.136026 4.31344293,27.8640531 4.31344293,29.7534413 L4.31344293,70.7234499 C4.31344293,72.6128382 5.37845951,74.3408652 7.06627626,75.1900193 L45.2007055,94.3757547 C46.6143998,95.0869956 48.2813447,95.0869956 49.6950389,94.3757547 L87.8294682,75.1900193 C89.5172849,74.3408652 90.5823015,72.6128382 90.5823015,70.7234499 L90.5823015,29.7534413 C90.5823015,27.8640531 89.5172849,26.136026 87.8294682,25.2868719 Z M38.4505718,72.4047424 L59.3904187,31.6932903 C59.9335573,30.637315 59.517821,29.340977 58.4618457,28.7978384 C58.4602029,28.7969934 58.4585591,28.7961506 58.4569142,28.7953099 C57.3960141,28.2530916 56.0964055,28.6717247 55.5514545,29.7312236 L34.6116076,70.4426757 C34.068469,71.498651 34.4842053,72.794989 35.5401807,73.3381277 C35.5418234,73.3389726 35.5434673,73.3398154 35.5451122,73.3406561 C36.6060122,73.8828744 37.9056209,73.4642413 38.4505718,72.4047424 Z"/>
</svg>
