<?xml version="1.0" encoding="UTF-8"?>
<svg width="2082px" height="530px" viewBox="0 0 2082 530" version="1.1" xmlns="http://www.w3.org/2000/svg" xmlns:xlink="http://www.w3.org/1999/xlink">
    <!-- Generator: Sketch 57.1 (83088) - https://sketch.com -->
    <title>Uptrend Logo</title>
    <desc>Created with Sketch.</desc>
    <g id="Page-1" stroke="none" stroke-width="1" fill="none" fill-rule="evenodd">
        <g id="Uptrend-Logo" fill="#FFFFFF" fill-rule="nonzero">
            <g id="Group">
                <path d="M265,530 L0,265 L265,0 L530,265 L265,530 Z M62.9040404,265 L265,467.09596 L467.09596,265 L265,62.9040404 L62.9040404,265 Z" id="Shape"></path>
                <polygon id="Path" points="265.001546 257.330779 213.576046 309 182 277.270834 264.889213 194 265.002007 194.11334 265.114829 194 348 277.280503 316.425494 309"></polygon>
            </g>
            <g id="Group" transform="translate(653.000000, 62.000000)">
                <path d="M0.81,19.34 L38.73,19.34 L38.73,190.77 C38.73,225.53 56.11,270.56 109.04,270.56 C161.97,270.56 179.35,225.53 179.35,190.77 L179.35,19.34 L217.27,19.34 L217.27,196.695 C217.27,261.475 170.265,306.11 109.04,306.11 C47.815,306.11 0.81,261.475 0.81,196.695 L0.81,19.34 Z M274.94,410.39 L274.94,111.77 L310.49,111.77 L310.49,138.63 L311.28,138.63 C325.105,118.485 351.175,107.03 376.455,107.03 C434.52,107.03 471.65,150.085 471.65,205.385 C471.65,261.475 434.125,303.74 376.455,303.74 C349.595,303.74 323.92,291.495 311.28,272.14 L310.49,272.14 L310.49,410.39 L274.94,410.39 Z M372.11,140.21 C334.19,140.21 310.49,167.465 310.49,205.385 C310.49,243.305 334.19,270.56 372.11,270.56 C410.03,270.56 433.73,243.305 433.73,205.385 C433.73,167.465 410.03,140.21 372.11,140.21 Z M616.615,111.77 L616.615,142.58 L565.66,142.58 L565.66,227.505 C565.66,248.44 565.66,270.56 592.52,270.56 C600.815,270.56 610.69,269.375 617.8,265.03 L617.8,297.42 C609.505,302.16 592.915,303.74 585.805,303.74 C530.9,303.74 530.11,270.165 530.11,240.145 L530.11,142.58 L489.03,142.58 L489.03,111.77 L530.11,111.77 L530.11,59.235 L565.66,59.235 L565.66,111.77 L616.615,111.77 Z M662.435,299 L662.435,111.77 L697.985,111.77 L697.985,140.605 L698.775,140.605 C707.86,120.855 731.56,107.03 754.865,107.03 C760.395,107.03 765.925,107.82 770.665,109.4 L769.085,147.715 C763.16,146.135 757.235,144.95 751.705,144.95 C716.945,144.95 697.985,163.91 697.985,204.99 L697.985,299 L662.435,299 Z M978.435,218.42 L828.335,218.42 C828.335,251.205 858.75,272.93 891.535,272.93 C913.26,272.93 929.06,261.87 942.885,244.885 L969.745,265.425 C949.995,291.1 922.74,303.74 886.795,303.74 C827.545,303.74 790.415,261.08 790.415,205.385 C790.415,149.295 831.1,107.03 887.19,107.03 C953.155,107.03 978.435,157.59 978.435,205.78 L978.435,218.42 Z M828.335,189.98 L940.515,189.98 C939.725,158.775 922.345,135.47 886.4,135.47 C851.245,135.47 828.335,165.095 828.335,189.98 Z M1021.095,299 L1021.095,111.77 L1056.645,111.77 L1056.645,140.605 L1057.435,140.605 C1066.52,120.855 1090.22,107.03 1119.055,107.03 C1155.395,107.03 1186.995,128.755 1186.995,178.525 L1186.995,299 L1151.445,299 L1151.445,188.4 C1151.445,153.245 1131.3,140.21 1108.785,140.21 C1079.16,140.21 1056.645,159.17 1056.645,202.62 L1056.645,299 L1021.095,299 Z M1428.34,0.38 L1428.34,299 L1392.79,299 L1392.79,272.14 L1392,272.14 C1378.175,292.285 1352.105,303.74 1326.825,303.74 C1268.76,303.74 1231.63,260.685 1231.63,205.385 C1231.63,149.295 1269.155,107.03 1326.825,107.03 C1353.685,107.03 1379.36,119.275 1392,138.63 L1392.79,138.63 L1392.79,0.38 L1428.34,0.38 Z M1331.17,270.56 C1369.09,270.56 1392.79,243.305 1392.79,205.385 C1392.79,167.465 1369.09,140.21 1331.17,140.21 C1293.25,140.21 1269.55,167.465 1269.55,205.385 C1269.55,243.305 1293.25,270.56 1331.17,270.56 Z" id="Uptrend"></path>
            </g>
        </g>
    </g>
</svg>