<svg xmlns="http://www.w3.org/2000/svg" width="127" height="39" viewBox="0 0 127 39">
  <g fill="none">
    <path fill="#000" d="M0.102715642,1.81646118 L3.62980769,1.81646118 L3.62980769,17.8639313 C3.62980769,19.8134649 4.16364801,21.5463578 5.23134466,23.0626617 C6.29904129,24.5789657 7.94854789,25.3371063 10.1799139,25.3371063 C12.41128,25.3371063 14.0667848,24.5789657 15.146478,23.0626617 C16.2141746,21.5463578 16.748015,19.8134649 16.748015,17.8639313 L16.748015,1.81646118 L20.2929901,1.81646118 L20.2929901,18.4235168 C20.2929901,21.4320565 19.3332771,23.886988 17.4138225,25.788385 C15.4943678,27.689782 13.0830891,28.6464834 10.1799139,28.6585175 C7.27673876,28.6585175 4.87145824,27.7018161 2.96400018,25.788385 C1.04454554,23.8749538 0.0908308336,21.4200223 0.102715642,18.4235168 L0.102715642,1.81646118 Z M37.8646526,14.8313385 C36.8089525,13.7001276 35.4113704,13.1345306 33.6718647,13.1345306 C31.9323591,13.1345306 30.5407752,13.7001276 29.4970719,14.8313385 C28.4533684,15.9625494 27.9315245,17.4306947 27.9315245,19.2358185 C27.9315245,21.0289081 28.4533684,22.4910364 29.4970719,23.6222473 C30.5407752,24.7534582 31.9323591,25.3190552 33.6718647,25.3190552 C35.4113704,25.3190552 36.8089525,24.7534582 37.8646526,23.6222473 C38.9203527,22.4910364 39.4421966,21.0228911 39.4301998,19.2177673 C39.4301998,17.4126436 38.9083559,15.9505152 37.8646526,14.8313385 Z M24.6024871,38.4241883 L24.6024871,10.4629608 L27.9315245,10.4629608 L27.9315245,12.9901215 L28.0035035,12.9901215 C28.639323,12.0755254 29.5090627,11.3534867 30.6127493,10.8239838 C31.7164356,10.2944808 32.8740895,10.0297333 34.0857451,10.0297333 C36.7369918,10.0297333 38.8783512,10.9021967 40.5098878,12.6471496 C42.1414243,14.4041368 42.9571802,16.6063548 42.9571802,19.2538696 C42.9571802,21.9013845 42.1414243,24.0915685 40.5098878,25.8244873 C38.8783512,27.5574062 36.7369918,28.4298695 34.0857451,28.4419036 C32.8380996,28.4419036 31.6624513,28.1771561 30.5587649,27.6476532 C29.4550783,27.1181504 28.6033333,26.3961116 28.0035035,25.4815155 L27.9315245,25.4815155 L27.9315245,38.4241883 L24.6024871,38.4241883 Z M55.4183204,10.4629608 L55.4183204,13.3511444 L50.6676939,13.3511444 L50.6676939,21.2936493 C50.6676939,23.3755587 51.027586,24.6150585 51.7473816,25.0121857 C52.1192761,25.2167664 52.701102,25.3190552 53.4928771,25.3190552 C54.284652,25.3190552 54.9684474,25.1505795 55.5442838,24.813623 L55.5442838,27.8462158 C54.8724747,28.2433431 53.9607474,28.4419036 52.8090746,28.4419036 C50.8776235,28.4419036 49.4380541,28.0207144 48.4903233,27.1783233 C48.1424222,26.853401 47.8785011,26.3840759 47.6985523,25.7703339 C47.5186035,25.1565918 47.416634,24.6391307 47.3926406,24.2179352 C47.3686475,23.7967396 47.3566512,23.2191087 47.3566512,22.485025 L47.3566512,13.3511444 L43.5237593,13.3511444 L43.5237593,10.4629608 L47.3566512,10.4629608 L47.3566512,5.55304871 L50.6676939,5.55304871 L50.6676939,10.4629608 L55.4183204,10.4629608 Z M58.6301347,27.990625 L58.6301347,10.4629608 L61.9591721,10.4629608 L61.9591721,13.1706329 L62.0311512,13.1706329 C62.4510318,12.2560369 63.1468238,11.5039133 64.1185478,10.9142395 C65.1022683,10.3245657 66.1459561,10.0297333 67.2496425,10.0297333 C67.7894892,10.0297333 68.2813421,10.1019371 68.7252159,10.2463471 L68.5812575,13.8385254 C67.9454381,13.6700472 67.4055995,13.5797923 66.9617257,13.5677582 C63.6146767,13.5677582 61.9471755,15.4450587 61.9591721,19.1997162 L61.9591721,27.990625 L58.6301347,27.990625 Z M73.0527076,17.7917267 L83.5076848,17.7917267 C83.4596984,16.2633886 83.009833,15.0299058 82.1580751,14.0912414 C81.3063169,13.1525771 80.0886813,12.683252 78.5051313,12.683252 C76.9215812,12.683252 75.6199705,13.224781 74.6002601,14.3078552 C73.5685533,15.3909295 73.0527076,16.5522084 73.0527076,17.7917267 Z M87.0528112,20.4452453 L73.0527076,20.4452453 C73.0527076,21.9254468 73.6345334,23.1468956 74.7982028,24.1096283 C75.9618722,25.072361 77.3834471,25.5537201 79.0629698,25.5537201 C80.7424926,25.5537201 82.2960279,24.6752397 83.7236223,22.9182526 L86.242894,24.8497254 C84.395419,27.244523 81.8161905,28.4419036 78.5051313,28.4419036 C75.8178946,28.4298695 73.6465442,27.5574062 71.9910146,25.8244873 C70.3354849,24.0915685 69.5077325,21.9013845 69.5077325,19.2538696 C69.5077325,16.6063548 70.3594777,14.4041368 72.0629936,12.6471496 C73.7665097,10.8901625 75.9858458,10.0176991 78.7210687,10.0296105 C81.4562916,10.0417674 83.5316708,10.9503328 84.9472686,12.7554565 C86.3628664,14.5605803 87.0646565,16.7327133 87.0528112,19.2719208 L87.0528112,20.4452453 Z M89.9585625,27.990625 L89.9585625,10.4629608 L93.2876002,10.4629608 L93.2876002,13.1706329 L93.3595793,13.1706329 C93.8034531,12.2319686 94.5412325,11.473828 95.5729393,10.8961884 C96.6046463,10.3185487 97.7802946,10.0297333 99.0999197,10.0297333 C100.923402,10.0297333 102.434949,10.5893132 103.634609,11.70849 C104.834268,12.8276667 105.434088,14.4943727 105.434088,16.7086578 L105.434088,27.990625 L102.123046,27.990625 L102.123046,17.6473175 C102.123046,16.0949111 101.751157,14.9577001 101.007368,14.2356506 C100.26358,13.5136011 99.2378863,13.1465648 97.9302577,13.1345306 C96.6226294,13.1345306 95.5189594,13.6219067 94.619215,14.5966736 C93.7194709,15.5714404 93.2756034,17.0275517 93.2876002,18.9650513 L93.2876002,27.990625 L89.9585625,27.990625 Z M117.823249,25.3371063 C119.550758,25.3250722 120.942342,24.7534582 121.998042,23.6222473 C123.053742,22.4910364 123.581584,21.0228911 123.581584,19.2177673 C123.581584,17.4126436 123.059741,15.9505152 122.016037,14.8313385 C120.972334,13.7001276 119.574752,13.1345306 117.823249,13.1345306 C116.071747,13.1345306 114.680163,13.7001276 113.648456,14.8313385 C112.604753,15.9625494 112.082909,17.4306947 112.082909,19.2358185 C112.082909,21.0409423 112.604753,22.5090876 113.648456,23.6402985 C114.69216,24.7715094 116.083743,25.3371063 117.823249,25.3371063 Z M126.892627,0.0474487305 L126.892627,27.990625 L123.581584,27.990625 L123.581584,25.4815155 L123.509605,25.4815155 C122.861789,26.3961116 121.986051,27.1181504 120.882365,27.6476532 C119.778678,28.1771561 118.627023,28.4420264 117.427364,28.4420264 C114.76412,28.453938 112.616763,27.5814744 110.985226,25.8244873 C109.35369,24.0675002 108.537934,21.8652822 108.537934,19.2177673 C108.537934,16.5702525 109.35369,14.3800685 110.985226,12.6471496 C112.616763,10.9142308 114.76412,10.0417674 117.427364,10.0297333 C118.675009,10.0297333 119.850658,10.2944808 120.954344,10.8239838 C122.05803,11.3534867 122.909776,12.0755254 123.509605,12.9901215 L123.581584,12.9901215 L123.581584,0.0474487305 L126.892627,0.0474487305 Z"/>
    <path fill="#FFF" d="M0.102715642,1.81646118 L3.62980769,1.81646118 L3.62980769,17.8639313 C3.62980769,19.8134649 4.16364801,21.5463578 5.23134466,23.0626617 C6.29904129,24.5789657 7.94854789,25.3371063 10.1799139,25.3371063 C12.41128,25.3371063 14.0667848,24.5789657 15.146478,23.0626617 C16.2141746,21.5463578 16.748015,19.8134649 16.748015,17.8639313 L16.748015,1.81646118 L20.2929901,1.81646118 L20.2929901,18.4235168 C20.2929901,21.4320565 19.3332771,23.886988 17.4138225,25.788385 C15.4943678,27.689782 13.0830891,28.6464834 10.1799139,28.6585175 C7.27673876,28.6585175 4.87145824,27.7018161 2.96400018,25.788385 C1.04454554,23.8749538 0.0908308336,21.4200223 0.102715642,18.4235168 L0.102715642,1.81646118 Z M37.8646526,14.8313385 C36.8089525,13.7001276 35.4113704,13.1345306 33.6718647,13.1345306 C31.9323591,13.1345306 30.5407752,13.7001276 29.4970719,14.8313385 C28.4533684,15.9625494 27.9315245,17.4306947 27.9315245,19.2358185 C27.9315245,21.0289081 28.4533684,22.4910364 29.4970719,23.6222473 C30.5407752,24.7534582 31.9323591,25.3190552 33.6718647,25.3190552 C35.4113704,25.3190552 36.8089525,24.7534582 37.8646526,23.6222473 C38.9203527,22.4910364 39.4421966,21.0228911 39.4301998,19.2177673 C39.4301998,17.4126436 38.9083559,15.9505152 37.8646526,14.8313385 Z M24.6024871,38.4241883 L24.6024871,10.4629608 L27.9315245,10.4629608 L27.9315245,12.9901215 L28.0035035,12.9901215 C28.639323,12.0755254 29.5090627,11.3534867 30.6127493,10.8239838 C31.7164356,10.2944808 32.8740895,10.0297333 34.0857451,10.0297333 C36.7369918,10.0297333 38.8783512,10.9021967 40.5098878,12.6471496 C42.1414243,14.4041368 42.9571802,16.6063548 42.9571802,19.2538696 C42.9571802,21.9013845 42.1414243,24.0915685 40.5098878,25.8244873 C38.8783512,27.5574062 36.7369918,28.4298695 34.0857451,28.4419036 C32.8380996,28.4419036 31.6624513,28.1771561 30.5587649,27.6476532 C29.4550783,27.1181504 28.6033333,26.3961116 28.0035035,25.4815155 L27.9315245,25.4815155 L27.9315245,38.4241883 L24.6024871,38.4241883 Z M55.4183204,10.4629608 L55.4183204,13.3511444 L50.6676939,13.3511444 L50.6676939,21.2936493 C50.6676939,23.3755587 51.027586,24.6150585 51.7473816,25.0121857 C52.1192761,25.2167664 52.701102,25.3190552 53.4928771,25.3190552 C54.284652,25.3190552 54.9684474,25.1505795 55.5442838,24.813623 L55.5442838,27.8462158 C54.8724747,28.2433431 53.9607474,28.4419036 52.8090746,28.4419036 C50.8776235,28.4419036 49.4380541,28.0207144 48.4903233,27.1783233 C48.1424222,26.853401 47.8785011,26.3840759 47.6985523,25.7703339 C47.5186035,25.1565918 47.416634,24.6391307 47.3926406,24.2179352 C47.3686475,23.7967396 47.3566512,23.2191087 47.3566512,22.485025 L47.3566512,13.3511444 L43.5237593,13.3511444 L43.5237593,10.4629608 L47.3566512,10.4629608 L47.3566512,5.55304871 L50.6676939,5.55304871 L50.6676939,10.4629608 L55.4183204,10.4629608 Z M58.6301347,27.990625 L58.6301347,10.4629608 L61.9591721,10.4629608 L61.9591721,13.1706329 L62.0311512,13.1706329 C62.4510318,12.2560369 63.1468238,11.5039133 64.1185478,10.9142395 C65.1022683,10.3245657 66.1459561,10.0297333 67.2496425,10.0297333 C67.7894892,10.0297333 68.2813421,10.1019371 68.7252159,10.2463471 L68.5812575,13.8385254 C67.9454381,13.6700472 67.4055995,13.5797923 66.9617257,13.5677582 C63.6146767,13.5677582 61.9471755,15.4450587 61.9591721,19.1997162 L61.9591721,27.990625 L58.6301347,27.990625 Z M73.0527076,17.7917267 L83.5076848,17.7917267 C83.4596984,16.2633886 83.009833,15.0299058 82.1580751,14.0912414 C81.3063169,13.1525771 80.0886813,12.683252 78.5051313,12.683252 C76.9215812,12.683252 75.6199705,13.224781 74.6002601,14.3078552 C73.5685533,15.3909295 73.0527076,16.5522084 73.0527076,17.7917267 Z M87.0528112,20.4452453 L73.0527076,20.4452453 C73.0527076,21.9254468 73.6345334,23.1468956 74.7982028,24.1096283 C75.9618722,25.072361 77.3834471,25.5537201 79.0629698,25.5537201 C80.7424926,25.5537201 82.2960279,24.6752397 83.7236223,22.9182526 L86.242894,24.8497254 C84.395419,27.244523 81.8161905,28.4419036 78.5051313,28.4419036 C75.8178946,28.4298695 73.6465442,27.5574062 71.9910146,25.8244873 C70.3354849,24.0915685 69.5077325,21.9013845 69.5077325,19.2538696 C69.5077325,16.6063548 70.3594777,14.4041368 72.0629936,12.6471496 C73.7665097,10.8901625 75.9858458,10.0176991 78.7210687,10.0296105 C81.4562916,10.0417674 83.5316708,10.9503328 84.9472686,12.7554565 C86.3628664,14.5605803 87.0646565,16.7327133 87.0528112,19.2719208 L87.0528112,20.4452453 Z M89.9585625,27.990625 L89.9585625,10.4629608 L93.2876002,10.4629608 L93.2876002,13.1706329 L93.3595793,13.1706329 C93.8034531,12.2319686 94.5412325,11.473828 95.5729393,10.8961884 C96.6046463,10.3185487 97.7802946,10.0297333 99.0999197,10.0297333 C100.923402,10.0297333 102.434949,10.5893132 103.634609,11.70849 C104.834268,12.8276667 105.434088,14.4943727 105.434088,16.7086578 L105.434088,27.990625 L102.123046,27.990625 L102.123046,17.6473175 C102.123046,16.0949111 101.751157,14.9577001 101.007368,14.2356506 C100.26358,13.5136011 99.2378863,13.1465648 97.9302577,13.1345306 C96.6226294,13.1345306 95.5189594,13.6219067 94.619215,14.5966736 C93.7194709,15.5714404 93.2756034,17.0275517 93.2876002,18.9650513 L93.2876002,27.990625 L89.9585625,27.990625 Z M117.823249,25.3371063 C119.550758,25.3250722 120.942342,24.7534582 121.998042,23.6222473 C123.053742,22.4910364 123.581584,21.0228911 123.581584,19.2177673 C123.581584,17.4126436 123.059741,15.9505152 122.016037,14.8313385 C120.972334,13.7001276 119.574752,13.1345306 117.823249,13.1345306 C116.071747,13.1345306 114.680163,13.7001276 113.648456,14.8313385 C112.604753,15.9625494 112.082909,17.4306947 112.082909,19.2358185 C112.082909,21.0409423 112.604753,22.5090876 113.648456,23.6402985 C114.69216,24.7715094 116.083743,25.3371063 117.823249,25.3371063 Z M126.892627,0.0474487305 L126.892627,27.990625 L123.581584,27.990625 L123.581584,25.4815155 L123.509605,25.4815155 C122.861789,26.3961116 121.986051,27.1181504 120.882365,27.6476532 C119.778678,28.1771561 118.627023,28.4420264 117.427364,28.4420264 C114.76412,28.453938 112.616763,27.5814744 110.985226,25.8244873 C109.35369,24.0675002 108.537934,21.8652822 108.537934,19.2177673 C108.537934,16.5702525 109.35369,14.3800685 110.985226,12.6471496 C112.616763,10.9142308 114.76412,10.0417674 117.427364,10.0297333 C118.675009,10.0297333 119.850658,10.2944808 120.954344,10.8239838 C122.05803,11.3534867 122.909776,12.0755254 123.509605,12.9901215 L123.581584,12.9901215 L123.581584,0.0474487305 L126.892627,0.0474487305 Z"/>
  </g>
</svg>
