<svg xmlns="http://www.w3.org/2000/svg" width="86" height="90" viewBox="0 0 86 90">
  <g fill="#706BF6" fill-rule="evenodd">
    <circle cx="9.643" cy="9.772" r="1.885"/>
    <circle cx="14.92" cy="9.772" r="1.885"/>
    <circle cx="20.198" cy="9.772" r="1.885"/>
    <path d="M82.118946,0.520558152 L3.82699993,0.520558152 C1.74476732,0.520558152 0.0789812369,2.18634424 0.0789812369,4.26857685 L0.0789812369,58.1174558 C0.0789812369,60.1996884 1.74476732,61.8654745 3.82699993,61.8654745 L13.3011583,61.8654745 L13.3011583,63.8435955 C13.3011583,66.0299397 15.071056,67.7998374 17.2574003,67.7998374 L19.9643026,67.7998374 C20.2766375,68.6327305 20.5889724,69.4656235 21.005419,70.2985166 L19.1314096,72.2766375 C18.4026282,73.005419 17.9861817,74.0465353 17.9861817,75.0876516 C17.9861817,76.1287679 18.4026282,77.1698842 19.1314096,77.8986656 L24.8575493,83.6248053 C26.3151121,85.1864797 29.0220145,85.1864797 30.4795773,83.6248053 L32.3535867,81.7507959 C33.1864797,82.1672424 34.0193728,82.4795773 34.8522658,82.7919122 L34.8522658,85.4988146 C34.8522658,87.6851588 36.6221635,89.4550566 38.8085078,89.4550566 L46.9292149,89.4550566 C49.1155592,89.4550566 50.8854569,87.6851588 50.8854569,85.4988146 L50.8854569,82.7919122 C51.7183499,82.4795773 52.551243,82.1672424 53.384136,81.7507959 L55.2581454,83.6248053 C56.7157082,85.1864797 59.4226106,85.1864797 60.8801734,83.6248053 L66.6063131,77.8986656 C67.3350945,77.1698842 67.751541,76.1287679 67.751541,75.0876516 C67.751541,74.0465353 67.3350945,73.005419 66.6063131,72.2766375 L64.7323037,70.4026282 C65.1487503,69.5697351 65.4610851,68.7368421 65.77342,67.9039491 L68.4803224,67.9039491 C70.6666667,67.9039491 72.4365644,66.1340513 72.4365644,63.9477071 L72.4365644,61.8654745 L81.9107228,61.8654745 C83.9929554,61.8654745 85.6587414,60.1996884 85.6587414,58.1174558 L85.6587414,4.26857685 C85.8669647,2.18634424 84.2011786,0.520558152 82.118946,0.520558152 Z M81.7024995,4.789135 L81.7024995,14.812572 L4.24344645,14.812572 L4.24344645,4.789135 L81.7024995,4.789135 Z M68.3762108,62.7204498 L64.4199688,63.5312606 C63.4829642,63.5312606 62.6500711,64.1559304 62.3377362,65.092935 C61.9212897,66.6546095 61.2966199,68.216284 60.4637269,69.6738468 C59.9431687,70.5067398 60.151392,71.5478561 60.7760618,72.1725259 L63.5870758,74.9835399 L58.173271,80.3973447 L55.4663686,77.5863307 C54.8416988,76.9616609 53.6964709,76.7534376 52.9676895,77.2739958 C51.5101267,78.1068888 50.0525638,78.7315586 48.3867778,79.1480051 C47.4497731,79.3562284 46.8251033,80.1891215 46.8251033,81.2302378 L46.8251033,85.2905913 L39.2249543,85.2905913 L39.2249543,81.3343494 C39.2249543,80.3973447 38.6002845,79.5644517 37.6632798,79.2521168 C36.1016054,78.8356703 34.5399309,78.2110005 33.0823681,77.3781074 C32.249475,76.9616609 31.2083587,77.0657725 30.583689,77.6904423 L27.7726749,80.5014563 L22.3588701,75.0876516 L25.1698842,72.2766375 C25.794554,71.6519678 26.0027772,70.6108515 25.4822191,69.7779584 C24.649326,68.3203956 24.0246562,66.8628328 23.6082097,65.1970467 C23.3999865,64.260042 22.5670934,63.6353722 21.5259771,63.6353722 L17.4656235,63.6353722 L17.4656235,56.0352232 L21.4218655,56.0352232 C22.3588701,56.0352232 23.1917632,55.4105534 23.5040981,54.4735487 C23.9205446,52.9118743 24.5452144,51.3501998 25.3781074,49.892637 C25.8986656,49.059744 25.6904423,48.0186277 25.0657725,47.3939579 L22.2547585,44.5829438 L27.6685633,39.1691391 L30.4795773,41.9801531 C31.1042471,42.6048229 32.249475,42.8130461 32.9782565,42.292488 C34.4358193,41.4595949 35.8933821,40.8349252 37.5591682,40.4184786 C38.4961729,40.2102554 39.1208426,39.3773623 39.1208426,38.336246 L39.1208426,34.2758924 L46.7209917,34.2758924 L46.7209917,38.2321344 C46.7209917,39.1691391 47.3456615,40.0020321 48.2826661,40.314367 C49.8443406,40.7308135 51.406015,41.3554833 52.8635779,42.1883763 C53.6964709,42.6048229 54.7375872,42.5007112 55.362257,41.8760415 L58.173271,39.0650274 L63.5870758,44.4788322 L60.7760618,47.2898462 C60.151392,47.914516 59.9431687,49.059744 60.4637269,49.7885254 C61.2966199,51.2460882 61.9212897,52.703651 62.3377362,54.3694371 C62.5459595,55.3064418 63.3788525,55.9311116 64.4199688,55.9311116 L68.4803224,55.9311116 L68.4803224,63.5312606 L68.3762108,62.7204498 Z M72.6447876,57.7010093 L72.6447876,55.7228883 C72.6447876,53.5365441 70.8748899,51.7666463 68.6885457,51.7666463 L65.8775317,51.7666463 C65.5651968,50.9337533 65.2528619,50.1008603 64.8364154,49.2679672 L66.7104247,47.3939579 C67.4392061,46.6651765 67.8556526,45.6240602 67.8556526,44.5829438 C67.8556526,43.5418275 67.4392061,42.5007112 66.7104247,41.7719298 L60.984285,36.0457902 C59.5267222,34.4841157 56.8198198,34.4841157 55.362257,36.0457902 L53.4882476,37.9197995 C52.6553546,37.503353 51.8224616,37.1910181 50.9895685,36.8786832 L50.9895685,34.1717808 C50.9895685,31.9854366 49.2196708,30.2155388 47.0333266,30.2155388 L38.9126194,30.2155388 C36.7262751,30.2155388 34.9563774,31.9854366 34.9563774,34.1717808 L34.9563774,36.8786832 C34.1234844,37.1910181 33.2905913,37.503353 32.4576983,37.9197995 L30.4795773,36.0457902 C29.0220145,34.4841157 26.3151121,34.4841157 24.8575493,36.0457902 L19.1314096,41.7719298 C18.4026282,42.5007112 17.9861817,43.5418275 17.9861817,44.5829438 C17.9861817,45.6240602 18.4026282,46.6651765 19.1314096,47.3939579 L21.005419,49.2679672 C20.5889724,50.1008603 20.2766375,50.9337533 19.9643026,51.7666463 L17.2574003,51.7666463 C15.071056,51.7666463 13.3011583,53.5365441 13.3011583,55.7228883 L13.3011583,57.7010093 L4.24344645,57.7010093 L4.24344645,18.327237 L81.7024995,18.327237 L81.7024995,57.7010093 L72.6447876,57.7010093 Z"/>
    <path d="M42.9729732,49.2238028 C37.106618,49.2238028 32.4135338,54.0071385 32.4135338,59.7832421 C32.4135338,65.6495973 37.1968696,70.3426814 42.9729732,70.3426814 C48.8393283,70.3426814 53.5324125,65.5593456 53.5324125,59.7832421 C53.5324125,54.0071385 48.8393283,49.2238028 42.9729732,49.2238028 Z M42.9729732,66.7326167 C39.1824052,66.7326167 36.1138502,63.6640617 36.1138502,59.8734937 C36.1138502,56.0829257 39.1824052,52.9241191 42.9729732,52.9241191 C46.7635411,52.9241191 49.9223478,55.9926741 49.9223478,59.8734937 C49.8320961,63.57381 46.7635411,66.7326167 42.9729732,66.7326167 Z"/>
  </g>
</svg>
