<svg xmlns="http://www.w3.org/2000/svg" width="106" height="109" viewBox="0 0 106 109">
  <g fill="#706BF6">
    <path d="M40.8379667,53.0124422 L46.8617911,57.2918042 L44.5646448,64.2065399 C44.3235495,64.9369192 44.5742097,65.7409636 45.1862681,66.2005249 C45.7983265,66.6600862 46.6335627,66.6713822 47.2576071,66.2285384 L53.3415106,61.911732 L59.4218801,66.2374537 C60.0459245,66.6802975 60.8811607,66.6690015 61.4932191,66.2094402 C62.1052775,65.749879 62.3559377,64.9458346 62.1148424,64.2154552 L59.8176961,57.3007195 L65.8415205,53.0213575 C66.4704353,52.5734432 66.7396249,51.7662283 66.5070067,51.0257735 C66.2743886,50.2853187 65.5934933,49.782019 64.823708,49.7815239 L57.3244089,49.7815239 L55.0166604,42.8275607 C54.7783163,42.0958352 54.1012886,41.6012559 53.3379766,41.6012559 C52.5746645,41.6012559 51.8976368,42.0958352 51.6592927,42.8275607 L49.3515442,49.7815239 L41.8557792,49.7815239 C41.0859939,49.782019 40.4050986,50.2853187 40.1724805,51.0257735 C39.9398623,51.7662283 40.2090518,52.5734432 40.8379667,53.0213575 L40.8379667,53.0124422 Z M50.629111,53.3387436 C51.3895409,53.3391843 52.0649716,52.8486632 52.3060278,52.1209085 L53.3415106,49.0005404 L54.3769935,52.1226915 C54.6180497,52.8504462 55.2934803,53.3409674 56.0539103,53.3405266 L59.2540117,53.3405266 L56.7112475,55.1521232 C56.0738861,55.6058511 55.8067421,56.4275981 56.0539103,57.1741217 L57.0540524,60.1910719 L54.3593231,58.2724913 C53.7489363,57.8384919 52.934085,57.8384919 52.3236981,58.2724913 L49.6307359,60.1892888 L50.630878,57.1723387 C50.8780462,56.425815 50.6109021,55.604068 49.9735408,55.1503401 L47.4307765,53.3405266 L50.629111,53.3387436 Z"/>
    <path d="M55.4026289,107.74684 C55.7202246,108.016238 56.1202794,108.163265 56.5332778,108.163265 C56.7923168,108.163265 57.0481761,108.105048 57.2823327,107.992008 C57.9028688,107.695564 58.2994629,107.059723 58.2999167,106.360562 L58.2999167,104.55786 L91.8660557,104.55786 C97.7177601,104.551898 102.460046,99.7128062 102.465889,93.7416489 L102.465889,55.4558655 L105.589307,51.6323348 C106.029016,51.0950746 106.124187,50.3466496 105.833415,49.7126692 C105.542643,49.0786888 104.918501,48.6737795 104.232528,48.6741009 L102.465889,48.6741009 L102.465889,14.4227644 C102.460046,8.45160712 97.7177601,3.61251512 91.8660557,3.6065529 L54.3461788,3.6065529 L50.5973711,0.4175732 C50.0705655,-0.0301746834 49.3374561,-0.126468688 48.7167006,0.170546898 C48.095945,0.467562485 47.6996546,1.10424526 47.7000833,1.80385098 L47.7000833,3.6065529 L14.1339443,3.6065529 C8.28223986,3.61251512 3.53995382,8.45160712 3.53411087,14.4227644 L3.53411087,52.7085478 L0.410693304,56.5320786 C-0.0290155157,57.0693388 -0.124186509,57.8177637 0.166585346,58.4517442 C0.457357201,59.0857246 1.08149897,59.4906339 1.76747198,59.4903124 L3.53411087,59.4903124 L3.53411087,93.7416489 C3.53995382,99.7128062 8.28223986,104.551898 14.1339443,104.55786 L51.6538212,104.55786 L55.4026289,107.74684 Z M98.9326113,93.7416489 C98.9326113,97.7240681 95.7688066,100.952457 91.8660557,100.952457 L56.5332778,100.952457 C55.6448584,100.952252 54.8944897,101.625315 54.780772,102.524413 L53.4275266,101.372486 L53.4275266,101.372486 L48.6929344,97.3470528 L53.4239933,93.3252248 L53.4239933,93.3252248 L54.7772387,92.1732983 C54.892752,93.0723281 55.6446956,93.7439027 56.5332778,93.7416489 L81.2662224,93.7416489 C87.1179268,93.7356867 91.8602128,88.8965947 91.8660557,82.9254374 L91.8660557,59.7823502 L94.0425549,62.4485463 C94.3782077,62.8592632 94.8752443,63.0967081 95.3993335,63.0967081 C95.9234228,63.0967081 96.4204593,62.8592632 96.7561122,62.4485463 L98.9326113,59.7823502 L98.9326113,93.7416489 Z M17.6672221,59.4903124 L19.433861,59.4903124 C20.119834,59.4906339 20.7439757,59.0857246 21.0347476,58.4517442 C21.3255194,57.8177637 21.2303484,57.0693388 20.7906396,56.5320786 L17.6672221,52.7085478 L17.6672221,25.2389759 C17.6672221,21.2565568 20.8310268,18.0281683 24.7337776,18.0281683 L47.7000833,18.0281683 L47.7000833,19.8308702 C47.6996546,20.5304759 48.095945,21.1671587 48.7167006,21.4641743 C49.3374561,21.7611899 50.0705655,21.6648958 50.5973711,21.217148 L54.3461788,18.0281683 L81.2662224,18.0281683 C85.1689732,18.0281683 88.3327779,21.2565568 88.3327779,25.2389759 L88.3327779,48.6741009 L86.566139,48.6741009 C85.880166,48.6737795 85.2560243,49.0786888 84.9652524,49.7126692 C84.6744806,50.3466496 84.7696516,51.0950746 85.2093604,51.6323348 L88.3327779,55.4558655 L88.3327779,82.9254374 C88.3327779,86.9078565 85.1689732,90.1362451 81.2662224,90.1362451 L58.2999167,90.1362451 L58.2999167,88.3335432 C58.3003454,87.6339375 57.904055,86.9972547 57.2832994,86.7002391 C56.6625439,86.4032235 55.9294345,86.4995175 55.4026289,86.9472654 L51.6538212,90.1362451 L24.7337776,90.1362451 C20.8310268,90.1362451 17.6672221,86.9078565 17.6672221,82.9254374 L17.6672221,59.4903124 Z M91.8660557,7.21195674 C95.7688066,7.21195674 98.9326113,10.4403453 98.9326113,14.4227644 L98.9326113,50.4768028 C98.9324107,51.3833579 99.592009,52.1490441 100.47312,52.2650831 L95.3993335,58.477194 L90.3255466,52.2650831 C91.2066581,52.1490441 91.8662564,51.3833579 91.8660557,50.4768028 L91.8660557,25.2389759 C91.8602128,19.2678186 87.1179268,14.4287266 81.2662224,14.4227644 L58.5861122,14.4227644 L61.1972045,12.2036384 C61.6009719,11.8611459 61.8345216,11.3531339 61.8345216,10.8173606 C61.8345216,10.2815872 61.6009719,9.77357527 61.1972045,9.4310828 L58.5861122,7.21195674 L91.8660557,7.21195674 Z M7.06738867,14.4227644 C7.06738867,10.4403453 10.2311934,7.21195674 14.1339443,7.21195674 L49.4667222,7.21195674 C50.3551416,7.21216147 51.1055103,6.53909857 51.219228,5.64000066 L52.5724734,6.79192719 L52.5724734,6.79192719 L57.3070656,10.8173606 L52.5760067,14.8391886 L52.5760067,14.8391886 L51.2227613,15.9911151 C51.107248,15.0920853 50.3553044,14.4205107 49.4667222,14.4227644 L24.7337776,14.4227644 C18.8820732,14.4287266 14.1397872,19.2678186 14.1339443,25.2389759 L14.1339443,48.3820632 L11.9574451,45.7158671 C11.6217923,45.3051501 11.1247557,45.0677053 10.6006665,45.0677053 C10.0765772,45.0677053 9.57954066,45.3051501 9.24388779,45.7158671 L7.06738867,48.3820632 L7.06738867,14.4227644 Z M14.1339443,100.952457 C10.2311934,100.952457 7.06738867,97.7240681 7.06738867,93.7416489 L7.06738867,57.6876105 C7.0675893,56.7810555 6.40799101,56.0153692 5.52687955,55.8993302 L10.6006665,49.6890221 L15.6744534,55.8993302 C14.7933419,56.0153692 14.1337436,56.7810555 14.1339443,57.6876105 L14.1339443,82.9254374 C14.1397872,88.8965947 18.8820732,93.7356867 24.7337776,93.7416489 L47.4138878,93.7416489 L44.8027955,95.960775 C44.3990281,96.3032675 44.1654784,96.8112794 44.1654784,97.3470528 C44.1654784,97.8828261 44.3990281,98.3908381 44.8027955,98.7333306 L47.4138878,100.952457 L14.1339443,100.952457 Z"/>
    <path d="M74.7435897 45.8927157C73.8084791 43.3143936 72.4326863 40.922948 70.6791835 38.8278388L67.9487179 41.1701172C69.4306514 42.9437754 70.5938814 44.9671138 71.3854926 47.14809L74.7435897 45.8927157zM49.6025641 34.9412557L48.9754818 31.2009419C46.3236525 31.7067373 43.7758287 32.707917 41.4487179 34.1586202L43.2375901 37.4411303C45.2058282 36.2153559 47.3602844 35.3691827 49.6025641 34.9412557L49.6025641 34.9412557zM64.1952222 74.1889063C66.3938019 72.8074889 68.3537746 71.0207537 69.9871795 68.908887L67.4191266 66.5620094C66.036077 68.3523053 64.3757201 69.8667946 62.5128205 71.037281L64.1952222 74.1889063zM53.3447132 73.8193024L53.319865 73.8193024C52.2648472 73.8196655 51.2117773 73.7145501 50.1724177 73.5051305L49.6025641 77.2809404C50.8354316 77.5590144 52.0905821 77.6829692 53.3463698 77.6506671 54.5971691 77.6489881 55.8454442 77.5207873 57.0769231 77.2675306L56.5004433 73.4955521C55.4586228 73.7089245 54.4027448 73.8172484 53.3447132 73.8193024zM71.3461538 61.2399007L74.7077571 62.4018838C75.6383359 59.9615857 76.110434 57.3845452 76.1024649 54.7885973L75.3121305 54.7749869 72.5262912 54.8379348C72.5293871 57.0211641 72.1299552 59.1879875 71.3461538 61.2399007zM38.0512821 41.1520022L35.294567 38.8278388C33.5488464 40.9345784 32.1821498 43.3336256 31.2564103 45.9162653L34.6323093 47.14809C35.4150153 44.9625996 36.5722865 42.9330134 38.0512821 41.1520022L38.0512821 41.1520022zM34.6538462 61.227987C33.8679112 59.1605649 33.4652827 56.9764068 33.4642977 54.7749869L29.8974359 54.7749869C29.8998113 57.3768746 30.3760588 59.9582272 31.3045629 62.4018838L34.6538462 61.227987zM41.8105624 74.1889063L43.4871795 71.0313783C41.6230575 69.864 39.9610995 68.3514388 38.576368 66.5620094L36.0128205 68.9105689C37.6482301 71.0230272 39.6102222 72.8092495 41.8105624 74.1889063zM64.5512821 34.1270456C62.2141502 32.6813711 59.6578487 31.6907876 57.0001733 31.2009419L56.3974359 34.9679898C58.6441591 35.3834264 60.8053579 36.2205694 62.7821855 37.4411303L64.5512821 34.1270456z"/>
  </g>
</svg>
